<svg width="172" height="52" viewBox="0 0 172 52" fill="none" xmlns="http://www.w3.org/2000/svg">
<path d="M-79.2867 -90.9275C-123.115 -89.0529 -104.256 -32.4205 -113.364 -13.139C-122.129 5.41913 -38.0538 5.34631 -1.80539 15.1709C35.6398 25.32 71.083 62.2514 103.584 49.1254C135.075 36.4071 152.324 -22.1222 135.873 -39.6217C118.784 -57.8003 -35.4261 -92.8035 -79.2867 -90.9275Z" fill="#318CE7" fill-opacity="0.2"/>
<path d="M-80.8208 -114.918C-130.287 -112.802 -109.003 -48.884 -119.282 -27.1217C-129.175 -6.17607 -34.283 -6.25826 6.62894 4.83037C48.8916 16.2851 88.8948 57.968 125.577 43.1532C161.12 28.7987 180.587 -37.2607 162.02 -57.0116C142.733 -77.529 -31.3173 -117.036 -80.8208 -114.918Z" fill="#318CE7" fill-opacity="0.3"/>
<path d="M-77.8447 -110.928C-127.281 -109.053 -106.01 -52.4205 -116.282 -33.139C-126.169 -14.5809 -31.3354 -14.6537 9.55147 -4.82906C51.7883 5.31996 91.767 42.2514 128.427 29.1254C163.948 16.4071 183.404 -42.1222 164.848 -59.6217C145.572 -77.8003 -28.3715 -112.803 -77.8447 -110.928Z" fill="#318CE7"/>
</svg>
