<svg width="47" height="60" viewBox="0 0 47 60" fill="none" xmlns="http://www.w3.org/2000/svg">
<path fill-rule="evenodd" clip-rule="evenodd" d="M31.0075 8.95485C31.8114 8.0142 32.3554 6.86142 32.2645 5.56969C32.0026 1.84788 26.8055 2.66663 25.7946 4.54508C24.7837 6.42354 24.9038 11.1884 26.2103 11.5241C26.7314 11.658 27.8413 11.33 28.9711 10.6512L28.262 15.6522H32.4489L31.0075 8.95485Z" fill="#B28B67"/>
<path fill-rule="evenodd" clip-rule="evenodd" d="M23.9397 1.941C24.0264 1.63719 24.2596 1.37706 24.5739 1.29988C24.6501 1.28117 24.7288 1.2736 24.8072 1.27676C24.8354 1.27788 24.8433 1.28596 24.8564 1.26635C24.8662 1.25181 24.8664 1.21629 24.8704 1.19921C24.8829 1.14608 24.8985 1.09361 24.9178 1.0425C24.9835 0.868175 25.094 0.713897 25.2273 0.583936C25.4764 0.340801 25.8131 0.173001 26.1629 0.142644C26.3544 0.126037 26.5444 0.157046 26.7254 0.219131C26.8191 0.251271 26.91 0.291291 26.9985 0.335536C27.0251 0.348853 27.1116 0.41408 27.1383 0.409854C27.1679 0.405194 27.2272 0.33203 27.2512 0.313665C27.5481 0.0866456 27.9146 -0.00261108 28.2843 5.79825e-05C28.7016 0.00319088 29.1034 0.0239775 29.4514 0.277574C29.5251 0.331265 29.5953 0.390049 29.6621 0.451941C29.6973 0.484526 29.7313 0.518332 29.7638 0.553544C29.7835 0.574787 29.8025 0.59651 29.8209 0.618816C29.8521 0.656677 29.8471 0.669115 29.8908 0.642698C30.0583 0.541255 30.2523 0.493811 30.4478 0.517761C30.5639 0.531992 30.6769 0.566735 30.7841 0.612466C30.8206 0.628033 30.9052 0.69013 30.9441 0.690735C30.9827 0.691329 31.066 0.633766 31.1058 0.619136C31.3206 0.54009 31.5521 0.520605 31.7779 0.55713C32.0107 0.59482 32.2395 0.687446 32.4368 0.815443C32.5317 0.877015 32.6145 0.945234 32.681 1.03679C32.7098 1.07631 32.7357 1.11813 32.7683 1.15478C32.7873 1.17624 32.825 1.19826 32.8353 1.22542C32.8292 1.20915 33.09 1.10892 33.1146 1.10251C33.2457 1.06838 33.3792 1.0753 33.5076 1.11742C33.749 1.19663 33.9566 1.37425 34.1273 1.55636C34.2149 1.6499 34.2916 1.75329 34.3567 1.86345C34.3879 1.91622 34.4165 1.97049 34.4426 2.02592C34.4552 2.05277 34.4636 2.08636 34.4803 2.11055C34.5018 2.14172 34.5162 2.14231 34.5551 2.1559C34.7527 2.22491 34.9328 2.34171 35.07 2.49954C35.2087 2.65922 35.2987 2.85586 35.3365 3.06294C35.3387 3.07514 35.34 3.12569 35.3472 3.13229C35.357 3.14138 35.3968 3.13736 35.4118 3.13912C35.4638 3.14521 35.5155 3.15426 35.5665 3.1663C35.6605 3.18848 35.752 3.22112 35.8386 3.26382C36.176 3.43023 36.4172 3.74223 36.5353 4.09329C36.6592 4.46172 36.657 4.88381 36.509 5.24536C36.485 5.30375 36.4566 5.36044 36.4231 5.41406C36.4026 5.44698 36.396 5.44706 36.4093 5.48159C36.4242 5.52001 36.4513 5.55735 36.469 5.59489C36.5265 5.71741 36.5668 5.84735 36.5922 5.98006C36.6339 6.19776 36.6545 6.42654 36.6134 6.64589C36.5943 6.74775 36.561 6.84732 36.5102 6.93804C36.4844 6.98429 36.4541 7.02816 36.4199 7.06874C36.4021 7.08981 36.3832 7.10994 36.3635 7.12921C36.3522 7.14022 36.3374 7.14986 36.3279 7.16217C36.3044 7.19216 36.2995 7.1675 36.3116 7.21154C36.3285 7.27311 36.3667 7.33386 36.3902 7.39378C36.4143 7.45552 36.4362 7.51811 36.4561 7.58131C36.4966 7.7093 36.5308 7.8396 36.5521 7.97214C36.5932 8.22662 36.586 8.49777 36.4652 8.73132C36.4136 8.83122 36.3396 8.91886 36.2497 8.98703C36.2058 9.02038 36.1581 9.04913 36.1082 9.07274C36.0825 9.08489 36.0497 9.0901 36.038 9.11485C36.0254 9.14146 36.0441 9.1943 36.0484 9.22406C36.0855 9.48288 36.1041 9.75464 36.027 10.0083C35.9559 10.2419 35.7994 10.4482 35.5962 10.5847C35.202 10.8496 34.6706 10.8347 34.2564 10.6226C34.1484 10.5673 34.0474 10.4987 33.9573 10.4177C33.7279 10.7256 33.2557 10.7159 32.9204 10.6282C32.5026 10.5189 32.1673 10.2293 31.9742 9.84875C31.7101 10.1693 31.1558 10.0653 30.9726 9.71757C30.9278 9.63247 30.9012 9.53868 30.8881 9.44377C30.8813 9.39386 30.8856 9.34351 30.8805 9.294C30.8739 9.23091 30.8316 9.1696 30.8073 9.10857C30.76 8.98978 30.7306 8.86709 30.7293 8.73896C30.7287 8.67207 30.7372 8.60688 30.7435 8.54052C30.7493 8.48079 30.7327 8.42513 30.7232 8.36618C30.8304 8.38376 30.9609 8.35496 31.0619 8.32399C31.1609 8.29359 31.2537 8.21354 31.3236 8.14044C31.486 7.97067 31.5852 7.74813 31.653 7.52664C31.8019 7.04051 31.7409 6.45726 31.2504 6.19046C31.0219 6.06618 30.3374 6.06658 30.0652 6.12801C29.7791 6.1926 29.4547 6.82203 29.4387 6.88119C29.4288 6.91781 29.4338 6.96313 29.4001 6.98752C29.3259 7.04117 29.2036 6.94808 29.1489 6.90213C29.0545 6.82283 28.9872 6.71732 28.9289 6.61037C28.8018 6.37738 28.6994 6.12752 28.6271 5.87245C28.5713 5.6758 28.5356 5.47302 28.4627 5.28138C28.3902 5.09069 28.2758 4.92025 28.098 4.81223C27.9046 4.69472 27.6829 4.63283 27.4705 4.55898C27.26 4.48579 27.0532 4.39634 26.89 4.24105C26.8542 4.2069 26.8193 4.17061 26.7904 4.13041C26.7677 4.09867 26.7451 4.03791 26.7104 4.01779C26.6564 3.98648 26.5776 4.06789 26.5309 4.09745C26.3005 4.2433 26.1084 4.44671 25.9534 4.66892C25.7992 4.88992 25.6727 5.10257 25.57 5.34935C25.4937 5.53237 25.4461 5.76677 25.3121 5.91676C25.2522 5.98374 24.8072 6.02426 24.6631 5.96578C24.519 5.90731 24.3575 5.75549 24.3091 5.66034C24.2596 5.56295 24.2477 5.45597 24.2689 5.34935C24.2813 5.28662 24.3068 5.22803 24.3207 5.16643C24.3324 5.11468 24.343 5.06576 24.3683 5.01835C24.4162 4.92851 24.498 4.86394 24.5966 4.83694C24.494 4.74256 24.4089 4.62966 24.35 4.50346C24.2888 4.37234 24.237 4.21289 24.2223 4.06899C24.2103 3.9521 24.2288 3.831 24.293 3.73055C24.3603 3.62518 24.4796 3.55644 24.5828 3.49071C24.4251 3.36775 24.2902 3.21821 24.1793 3.05265C23.9636 2.73069 23.8301 2.32485 23.9397 1.941Z" fill="#191847"/>
<path fill-rule="evenodd" clip-rule="evenodd" d="M44.1374 37.3913H24.0751C22.5335 37.3913 21.2838 38.6372 21.2838 40.1739V56.1739C21.2838 57.7107 22.5335 58.9565 24.0751 58.9565H44.1374C45.679 58.9565 46.9287 57.7107 46.9287 56.1739V40.1739C46.9287 38.6372 45.679 37.3913 44.1374 37.3913ZM41.3461 42.2609C41.7315 42.2609 42.0439 42.5724 42.0439 42.9566V53.3913C42.0439 53.7755 41.7315 54.087 41.3461 54.087H26.8664C26.481 54.087 26.1686 53.7755 26.1686 53.3913V42.9566C26.1686 42.5724 26.481 42.2609 26.8664 42.2609H41.3461Z" fill="#C5CFD6"/>
<path fill-rule="evenodd" clip-rule="evenodd" d="M8.80884 58.3756C11.0441 53.4438 12.6606 49.1493 13.3095 46.8835C14.4205 43.004 15.2657 39.5902 15.4793 38.3153C15.9887 35.2752 11.5607 35.0982 10.9754 36.609C10.0895 38.8958 8.54303 46.4092 6.68479 57.7578L8.80884 58.3756ZM34.7364 42.898C32.6856 42.0899 25.5037 39.5609 22.0398 38.8455C21.0445 38.6399 20.0797 38.4489 19.1727 38.2762C16.4767 37.7632 15.0799 42.6118 17.6765 42.9843C24.143 43.9121 33.3104 44.8702 34.0949 44.9777C35.1944 45.1284 36.0253 43.4059 34.7364 42.898Z" fill="#B28B67"/>
<path fill-rule="evenodd" clip-rule="evenodd" d="M17.5179 36.942L28.611 31.3125V30.087H27.2917C16.5597 32.8132 11.0756 34.5603 10.8395 35.3284C10.837 35.3366 10.8347 35.3449 10.8325 35.3532C10.8271 35.3602 10.8218 35.3674 10.8166 35.3745C8.68974 38.2905 7.41597 52.5265 6.9979 53.5924L11.0734 54.1985C12.6325 48.4354 17.6203 44.4206 17.4878 37.5181C17.5236 37.3156 17.5327 37.1236 17.5179 36.942Z" fill="#1F28CF"/>
<path fill-rule="evenodd" clip-rule="evenodd" d="M27.6893 40.2853C28.7043 40.0828 29.639 39.902 30.4388 39.7622C35.605 38.8588 37.1115 36.102 36.2208 30.087H26.7021C25.1473 30.5323 17.0666 33.9104 12.874 35.7072C10.0991 36.8964 10.9739 41.1834 12.5453 42.2991C12.5538 42.3675 12.5821 42.414 12.6325 42.4348C21.0856 45.9274 27.7727 44.0949 30.0066 44.6804L31.0399 41.4311L27.6893 40.2853Z" fill="#2B44FF"/>
<path fill-rule="evenodd" clip-rule="evenodd" d="M34.0375 42.3809C34.5909 42.4333 34.9837 42.5159 35.2159 42.6287C35.4984 42.766 35.8875 43.0133 36.3834 43.3705C36.2233 43.6976 34.7843 46.6372 32.0665 52.1893C31.1954 52.0496 30.8504 51.7183 31.0316 51.1951C31.2128 50.6719 31.3589 50.2352 31.47 49.8849L31.646 44.8965C31.6494 44.8006 31.7302 44.7254 31.8264 44.7286C31.828 44.7286 31.8297 44.7287 31.8313 44.7288L32.6005 44.7765C33.0379 44.4232 33.3265 44.1037 33.4664 43.8179C33.5801 43.5857 33.6431 43.2195 33.6555 42.719C33.6602 42.527 33.8202 42.375 34.0126 42.3794C34.0209 42.3796 34.0292 42.3801 34.0375 42.3809Z" fill="#E4E4E4"/>
<path fill-rule="evenodd" clip-rule="evenodd" d="M9.82616 57.4612C10.0213 57.9806 10.1189 58.3692 10.1189 58.6271C10.1189 58.9407 10.0665 59.3984 9.96169 60C9.59674 60 6.31689 60 0.12213 60C-0.133565 59.1573 0.0140371 58.7024 0.564937 58.6352C1.11584 58.568 1.57348 58.5073 1.93786 58.4532L6.51119 56.4207C6.59919 56.3816 6.70234 56.421 6.74157 56.5087C6.74224 56.5102 6.74289 56.5117 6.74352 56.5133L7.03749 57.2241C7.54747 57.4614 7.96189 57.58 8.28074 57.58C8.5398 57.58 8.89756 57.4757 9.35402 57.2671C9.52919 57.187 9.73629 57.2637 9.81659 57.4383C9.82005 57.4458 9.82324 57.4535 9.82616 57.4612Z" fill="#E4E4E4"/>
<path fill-rule="evenodd" clip-rule="evenodd" d="M18.4849 27.3257L13.543 32.1318C12.1051 32.7432 10.9269 33.4184 10.0085 34.1573C9.80194 34.4056 9.57709 34.8815 10.5488 34.6685C11.5206 34.4556 12.5524 34.2752 12.735 34.5902C12.9176 34.9053 12.3795 35.388 12.717 35.8003C12.942 36.0752 13.6988 35.2009 14.9874 33.1774L20.1263 30.157L18.4849 27.3257ZM40.4202 28.0035L36.7746 28.0178C39.0256 35.2619 40.2408 39.1056 40.4202 39.5488C40.8239 40.5461 39.9697 42.065 39.6044 42.8813C40.7942 43.412 40.6674 41.4465 42.1683 42.1426C43.5382 42.7779 44.5803 43.9292 46.1631 42.9556C46.3577 42.8359 46.5709 42.3852 46.0557 42.033C44.7721 41.1556 42.9224 39.62 42.6725 39.1145C42.3316 38.4252 41.5809 34.7216 40.4202 28.0035Z" fill="#B28B67"/>
<path fill-rule="evenodd" clip-rule="evenodd" d="M30.0597 12.7535L28.5512 12.4955C25.954 18.9634 21.4195 24.8402 14.9478 30.1261L19.8382 36.049C26.3091 28.5226 30.2978 20.7574 30.0597 12.7535Z" fill="#191847"/>
<path fill-rule="evenodd" clip-rule="evenodd" d="M36.6359 31.6522H23.2029C26.315 24.1088 27.8711 17.7007 27.8711 12.428L31.9231 11.8261C35.1077 16.9319 36.007 23.2182 36.6359 31.6522Z" fill="#DDE3E9"/>
<path fill-rule="evenodd" clip-rule="evenodd" d="M32.009 11.829C32.0084 11.828 32.0079 11.8271 32.0074 11.8261H31.7429C31.4264 11.837 30.9443 11.8566 30.2967 11.8849L29.3175 14.6743C29.214 18.0753 28.6091 24.9291 27.503 35.2359H36.3086C36.2856 35.9477 36.2475 36.6662 36.1945 37.3913H42.7418C41.7625 26.3764 38.1859 17.8547 32.0122 11.8261L32.009 11.829Z" fill="#2F3676"/>
<path fill-rule="evenodd" clip-rule="evenodd" d="M35.7266 26.1275C35.476 30.5649 34.8486 33.6238 33.8443 35.3044H36.306C36.4138 32.1118 36.2207 29.0529 35.7266 26.1275Z" fill="black" fill-opacity="0.1"/>
<path fill-rule="evenodd" clip-rule="evenodd" d="M34.3484 29.9131L30.0064 27.9008V29.9131H34.3484Z" fill="white" fill-opacity="0.2"/>
</svg>
